<?xml version="1.0" encoding="UTF-8"?>
<svg width="25px" height="20px" viewBox="0 0 25 20" version="1.1" xmlns="http://www.w3.org/2000/svg" xmlns:xlink="http://www.w3.org/1999/xlink">
    <!-- Generator: sketchtool 52.6 (67491) - http://www.bohemiancoding.com/sketch -->
    <title>5285780B-3770-4EF9-B03F-A653BEDDF5C3</title>
    <desc>Created with sketchtool.</desc>
    <g id="Asset-Artboard-Page" stroke="none" stroke-width="1" fill="none" fill-rule="evenodd">
        <g id="A-logo-(white)" transform="translate(0.352941, 0.000000)" fill="#FFFFFE">
            <g>
                <path d="M14.13,9.38615398 C14.2315384,9.01461551 14.3353846,8.62384628 14.45,8.18538473 C14.7953846,6.87307702 15.2830769,4.82000007 15.3984615,4.36307698 L16.2030769,7.87153857 C16.3930769,8.69230782 16.6953846,9.80769245 16.9392308,10.6638463 C18.053077,11.0307694 19.2600001,11.2469232 20.6192309,11.2038463 C20.643077,11.2030771 20.6669232,11.2023079 20.6907693,11.2015386 C20.6907693,11.2015386 21.1676924,11.1923079 21.2438462,11.2007694 L17.6976923,-7.58367728e-14 L13.3584615,-7.58367728e-14 L10.9046153,7.44384626 C11.3776922,7.71846165 11.8438461,8.00538473 12.3061538,8.29153858 C12.9053846,8.66307705 13.5084615,9.03615397 14.13,9.38615398" id="Fill-1"></path>
                <path d="M6.80461529,19.8784612 L11.0015385,19.8784612 L12.1423078,16.0653842 C10.8107693,15.7215381 9.65153847,15.1353842 8.58846151,14.4692304 L6.80461529,19.8784612" id="Fill-2"></path>
                <path d="M21.74077,12.7800001 C21.6515392,12.4892309 21.4153854,12.2676925 21.0123084,12.2892309 C17.0600006,12.5315386 14.2523082,10.7938463 11.7384619,9.2369233 C9.30538494,7.73307717 7.01076948,6.31000028 4.04923091,6.88846181 C2.78230779,7.13692334 1.44076928,7.73769256 1.95399256e-13,8.70846177 C0.297692318,8.62000023 0.596153867,8.54846177 0.894615416,8.49076947 C4.41000015,7.80307717 7.39461564,9.50923098 10.2792311,11.1653848 C13.2946158,12.8900001 16.4107698,14.673077 20.2730776,13.9192309 C20.5100007,13.8692309 20.7515392,13.8046155 20.9923084,13.7392309 C20.6792315,14.1238463 20.3146161,14.526154 19.9869238,14.7476924 C19.1907699,15.2846155 18.577693,15.4815386 18.3769237,15.523077 L19.6807699,19.8784615 L23.9923085,19.8784615 C23.9923085,19.8784615 21.74077,12.7792309 21.74077,12.7800001" id="Fill-3"></path>
                <path d="M0.785384651,9.28076956 C7.26461531,9.76230803 9.44461528,17.4138467 18.1823074,14.7061543 C9.76769219,15.6900005 7.80076915,8.14307723 0.785384651,9.28076956" id="Fill-4"></path>
            </g>
        </g>
    </g>
</svg>