<svg id="Layer_1" data-name="Layer 1" xmlns="http://www.w3.org/2000/svg" viewBox="0 0 200 71.62"><defs><style>.cls-1{fill:#fff;}.cls-2{fill:#ff671d;}</style></defs><path class="cls-1" d="M86.38,25.74Q92,31.83,92,42.79a27,27,0,0,1-2.57,12.15A18.94,18.94,0,0,1,82.08,63a21.65,21.65,0,0,1-11.33,2.87q-9.9,0-15.59-6.1T49.48,42.71a27,27,0,0,1,2.58-12.15,19,19,0,0,1,7.36-8.06,21.65,21.65,0,0,1,11.33-2.86Q80.74,19.64,86.38,25.74Zm-21.52,6.7q-2,3.31-2,10.27,0,7.13,1.92,10.39a6.94,6.94,0,0,0,11.82,0q2-3.31,2-10.27,0-7.11-1.93-10.39a7,7,0,0,0-11.82,0Z"/><path class="cls-1" d="M116.77,14.65c-.82.87-1.23,2.34-1.23,4.42v3.35h10.23l-1.39,9h-8.84V65.87H102.61V31.42H96.07v-9h6.54V18.58a14.16,14.16,0,0,1,4.3-10.68q4.29-4.14,12.31-4.13a25.47,25.47,0,0,1,11.87,2.78L127.57,15a15,15,0,0,0-6.79-1.64A5.3,5.3,0,0,0,116.77,14.65Z"/><rect class="cls-1" x="136.32" y="22.42" width="12.93" height="43.45"/><path class="cls-1" d="M194.81,55.48a4.24,4.24,0,0,0,2.25,1.72l-2.7,8.42a15.85,15.85,0,0,1-6.55-1.76,9.37,9.37,0,0,1-3.93-4.54q-4.24,6.56-13.09,6.55-6.47,0-10.31-3.77a13.11,13.11,0,0,1-3.84-9.81q0-7.12,5.23-10.89T177,37.64h4.42V35.76c0-2.57-.55-4.32-1.64-5.28s-3-1.43-5.73-1.43a26.55,26.55,0,0,0-5.15.61,53.05,53.05,0,0,0-6.22,1.68l-2.94-8.51a48.79,48.79,0,0,1,8.38-2.37,42.56,42.56,0,0,1,8-.82q9.33,0,13.66,3.85T194.11,35V51.88A7.12,7.12,0,0,0,194.81,55.48Zm-13.38-3V44.76h-3.19c-3,0-5.14.52-6.59,1.55a5.54,5.54,0,0,0-2.17,4.83,5.66,5.66,0,0,0,1.35,4,4.85,4.85,0,0,0,3.73,1.43A7.62,7.62,0,0,0,181.43,52.45Z"/><path class="cls-2" d="M157.8,8.47c-9.17.69-12.26,11.52-24.63,7.69,11.91,1.39,14.7-9.3,24.63-7.69"/><path class="cls-1" d="M129.74,13.78a1,1,0,0,0,.61,1,.44.44,0,0,0,.16.06c.45.13.91.24,1.36.34,5.47,1.06,9.88-1.46,14.15-3.9,4.09-2.35,8.32-4.77,13.29-3.79a11.19,11.19,0,0,1,1.27.31,15.8,15.8,0,0,0-5.73-2.58c-4.2-.82-7.45,1.2-10.89,3.33-.73.45-1.46.9-2.2,1.33s-1.56.87-2.37,1.25a20.41,20.41,0,0,1-2.59,1,16.72,16.72,0,0,1-2.87.63,15.07,15.07,0,0,1-1.78.14h-.89a2.16,2.16,0,0,0-.76,0,1,1,0,0,0-.76.94"/><path class="cls-1" d="M34.35,18.71a24.1,24.1,0,0,1,7.57,4.13l-5,7.66A21,21,0,0,0,25.65,27a7.62,7.62,0,0,0-4.08.9,2.85,2.85,0,0,0-1.42,2.54,3.3,3.3,0,0,0,.64,2.11,7.13,7.13,0,0,0,2.63,1.68,55.69,55.69,0,0,0,6.11,2.06q7.14,2.07,10.62,5.38t3.49,9.16A12.61,12.61,0,0,1,41,58.85a16.75,16.75,0,0,1-7.31,5.21,28.18,28.18,0,0,1-10.33,1.81,30.84,30.84,0,0,1-10.71-1.81,24.57,24.57,0,0,1-8.4-5l6.63-7.41A19.47,19.47,0,0,0,23,56.14,9.11,9.11,0,0,0,27.85,55a3.58,3.58,0,0,0,1.76-3.19,4.29,4.29,0,0,0-.69-2.58,6.22,6.22,0,0,0-2.66-1.77,62.3,62.3,0,0,0-6.29-2q-6.79-2-10.15-5.51a12.21,12.21,0,0,1-3.36-8.77,11.78,11.78,0,0,1,2.28-7.1,15.46,15.46,0,0,1,6.54-5,24.63,24.63,0,0,1,9.86-1.85A28.31,28.31,0,0,1,34.35,18.71Z"/></svg>